HIERARCHY
ROOT Hips
{
 OFFSET 0.000000 0.000000 0.000000
 CHANNELS 6 Xposition Yposition Zposition Yrotation Xrotation Zrotation
 JOINT Chest
 {
  OFFSET 0.000000 9.857222 0.000240
  CHANNELS 3 Yrotation Xrotation Zrotation
  JOINT Chest2
  {
   OFFSET 0.000000 10.876940 -0.000436
   CHANNELS 3 Yrotation Xrotation Zrotation
   JOINT Chest3
   {
    OFFSET 0.000000 9.827798 0.000000
    CHANNELS 3 Yrotation Xrotation Zrotation
    JOINT Chest4
    {
     OFFSET 0.000000 9.827798 0.000000
     CHANNELS 3 Yrotation Xrotation Zrotation
     JOINT Neck
     {
      OFFSET 0.000000 13.831992 0.000000
      CHANNELS 3 Yrotation Xrotation Zrotation
      JOINT Head
      {
       OFFSET 0.000000 9.147643 -0.001036
       CHANNELS 3 Yrotation Xrotation Zrotation
       End Site
       {
        OFFSET 0.000000 17.515799 -0.000541
       }
      }
     }
     JOINT RightCollar
     {
      OFFSET -3.001579 7.717577 0.000000
      CHANNELS 3 Yrotation Xrotation Zrotation
      JOINT RightShoulder
      {
       OFFSET -14.002642 0.000000 0.000000
       CHANNELS 3 Yrotation Xrotation Zrotation
       JOINT RightElbow
       {
        OFFSET -30.053852 0.000000 0.000000
        CHANNELS 3 Yrotation Xrotation Zrotation
        JOINT RightWrist
        {
         OFFSET -24.564923 0.000000 -0.000000
         CHANNELS 3 Yrotation Xrotation Zrotation
         End Site
         {
          OFFSET -18.334355 0.000000 0.000000
         }
        }
       }
      }
     }
     JOINT LeftCollar
     {
      OFFSET 3.001579 7.717577 0.000000
      CHANNELS 3 Yrotation Xrotation Zrotation
      JOINT LeftShoulder
      {
       OFFSET 14.002642 0.000000 0.000000
       CHANNELS 3 Yrotation Xrotation Zrotation
       JOINT LeftElbow
       {
        OFFSET 30.053852 0.000000 0.000000
        CHANNELS 3 Yrotation Xrotation Zrotation
        JOINT LeftWrist
        {
         OFFSET 24.564923 0.000000 -0.000000
         CHANNELS 3 Yrotation Xrotation Zrotation
         End Site
         {
          OFFSET 18.334355 0.000000 0.000000
         }
        }
       }
      }
     }
    }
   }
  }
 }
 JOINT RightHip
 {
  OFFSET -8.003235 -0.001175 -0.000120
  CHANNELS 3 Yrotation Xrotation Zrotation
  JOINT RightKnee
  {
   OFFSET 0.000000 -41.759727 0.000113
   CHANNELS 3 Yrotation Xrotation Zrotation
   JOINT RightAnkle
   {
    OFFSET 0.000000 -40.728748 0.000159
    CHANNELS 3 Yrotation Xrotation Zrotation
    JOINT RightToe
    {
     OFFSET 0.000000 -6.515296 14.732841
     CHANNELS 3 Yrotation Xrotation Zrotation
     End Site
     {
      OFFSET 0.000000 -1.502839 6.412115
     }
    }
   }
  }
 }
 JOINT LeftHip
 {
  OFFSET 8.003235 -0.001175 -0.000120
  CHANNELS 3 Yrotation Xrotation Zrotation
  JOINT LeftKnee
  {
   OFFSET 0.000000 -41.759727 0.000113
   CHANNELS 3 Yrotation Xrotation Zrotation
   JOINT LeftAnkle
   {
    OFFSET 0.000000 -40.728748 0.000159
    CHANNELS 3 Yrotation Xrotation Zrotation
    JOINT LeftToe
    {
     OFFSET 0.000000 -6.515296 14.732841
     CHANNELS 3 Yrotation Xrotation Zrotation
     End Site
     {
      OFFSET 0.000000 -1.502839 6.412115
     }
    }
   }
  }
 }
}
MOTION
Frames: 14
Frame Time: 0.016667
0.000000 88.822259 0.000000 0.000000 -5.826342 0.000000 0.000000 11.116423 0.000000 0.000000 -5.290081 0.000000 0.000000 0.000000 0.000000 0.000000 0.000000 0.000000 0.000000 12.665069 0.000000 0.000000 0.575450 0.000000 0.000000 0.000000 0.000000 0.000000 0.000000 0.000000 2.337306 0.000000 0.000000 -2.337306 0.000000 0.000000 0.000000 0.000000 0.000000 0.000000 0.000000 0.000000 -2.337306 0.000000 0.000000 2.337306 0.000000 0.000000 0.000000 8.578828 0.000000 0.000000 1.905768 0.000000 0.000000 -4.658254 0.000000 0.000000 0.000000 0.000000 0.000000 8.578828 0.000000 0.000000 1.905768 0.000000 0.000000 -4.658254 0.000000 0.000000 0.000000 0.000000
8.248298 89.670088 19.042809 -30.578786 -16.165600 -0.803710 0.271165 9.231648 2.366275 -0.024394 4.124018 1.086382 -0.024394 4.124018 1.086382 -0.025630 3.092982 0.814599 -8.889842 22.487475 -0.613402 -15.876494 5.922959 1.287125 7.008115 2.944863 10.163797 25.401440 -15.704023 72.488150 31.626645 -35.807343 -30.358633 1.141057 -4.050385 -26.773055 -21.680504 7.833321 -12.506310 -30.159467 8.536388 -55.788079 -21.765223 -44.324564 1.225702 5.085601 8.380540 3.656152 3.212244 23.264467 -7.166264 -16.705420 -2.333961 2.590253 -0.646416 -2.615427 5.672856 -0.129951 0.135086 0.153741 11.263774 15.084735 11.619817 -0.393110 7.737340 1.189706 -1.607179 -6.135741 -7.830405 0.130561 0.381506 0.017071
8.169395 89.675365 18.982669 -30.482492 -16.301942 -1.006969 0.288969 9.213083 2.180427 -0.026834 4.128977 1.031068 -0.026834 4.128977 1.031068 -0.027094 3.096698 0.773148 -8.873464 22.473922 -0.607171 -15.849302 5.897278 1.295559 7.135317 2.974945 10.272989 24.910217 -15.404275 71.811074 32.126651 -36.037255 -30.861635 1.591845 -3.634086 -27.346559 -21.566558 7.783546 -12.576412 -29.733908 8.678239 -55.337066 -21.767335 -44.977329 1.450488 5.109989 8.395465 4.107955 3.854272 23.312537 -6.763516 -17.104093 -2.009363 2.707935 -0.544973 -2.778220 5.565878 -0.240767 0.087540 0.087253 10.990398 15.145787 11.883158 -0.288933 7.859212 1.079171 -1.547912 -6.157621 -7.833347 0.151467 0.381447 0.015669
8.084004 89.685990 18.950634 -30.339845 -16.468189 -1.251634 0.271811 9.225673 1.990994 -0.028286 4.129546 0.973119 -0.028286 4.129546 0.973119 -0.027791 3.097124 0.729715 -8.846650 22.467683 -0.613838 -15.799413 5.882620 1.277296 7.286574 3.071643 10.419334 23.808493 -15.474318 71.121600 32.783141 -35.924068 -31.451414 1.941996 -3.240003 -27.969488 -21.449704 7.756280 -12.660986 -29.286568 8.697237 -55.049733 -21.931420 -45.603944 2.018033 5.124166 8.460232 4.650239 3.949646 23.406694 -6.505809 -17.116732 -1.817164 2.792800 -0.458555 -2.855922 5.485589 -0.299267 0.025852 0.037225 10.497187 15.296234 12.080721 0.033805 7.970277 1.070757 -1.490802 -6.183635 -7.880939 0.160353 0.377690 0.011554
7.991422 89.696558 18.947371 -30.160227 -16.628105 -1.522529 0.234152 9.239365 1.798516 -0.034735 4.125131 0.911468 -0.034735 4.125131 0.911468 -0.032202 3.093805 0.683540 -8.808028 22.473706 -0.631203 -15.724704 5.888318 1.235379 7.413817 3.129942 10.561271 22.106075 -15.700876 70.191436 33.588097 -35.664538 -31.799409 2.229240 -2.828215 -28.662526 -21.287064 7.735332 -12.747988 -28.884883 8.818772 -54.780124 -22.314894 -46.274823 2.707770 5.102458 8.499080 5.178501 3.631455 23.539863 -6.358024 -16.889730 -1.731817 2.878623 -0.356899 -2.903312 5.413709 -0.335858 -0.028480 -0.008809 9.821659 15.485182 12.226448 0.524916 8.096017 1.105765 -1.445724 -6.243623 -7.946242 0.166672 0.384930 0.009799
7.870422 89.707564 18.971393 -29.923197 -16.768765 -1.812334 0.171162 9.251940 1.606521 -0.047751 4.117101 0.840966 -0.047751 4.117101 0.840966 -0.041472 3.087767 0.630775 -8.764560 22.488781 -0.644769 -15.641847 5.910848 1.198027 7.463237 3.151903 10.662605 20.019905 -15.932354 68.917041 34.632356 -35.393362 -31.853396 2.462983 -2.401834 -29.538567 -21.117701 7.665767 -12.839104 -28.319485 8.829336 -54.522564 -22.654361 -46.683103 3.309994 5.030966 8.568067 5.611629 3.023203 23.709445 -6.268221 -16.533900 -1.750738 2.948046 -0.267860 -2.916464 5.346926 -0.339444 -0.077348 -0.043052 9.016328 15.685052 12.377866 1.079069 8.248653 1.103869 -1.394191 -6.327767 -8.010394 0.173110 0.385331 0.013266
7.714045 89.714272 19.016730 -29.619339 -16.797464 -2.116823 0.075233 9.233431 1.404672 -0.066065 4.088572 0.756265 -0.066065 4.088572 0.756265 -0.054595 3.066353 0.567400 -8.718354 22.510207 -0.639970 -15.558737 5.947166 1.192257 7.428296 3.110505 10.717896 17.625441 -16.340205 67.740924 35.811867 -34.730603 -31.820945 2.633011 -1.844293 -30.550117 -20.954113 7.528464 -12.927317 -27.604500 8.817465 -54.218399 -22.895113 -46.681191 3.692575 4.917348 8.577455 5.831157 2.157079 23.828173 -6.215375 -16.027437 -1.858432 2.982030 -0.215156 -2.933189 5.281058 -0.315408 -0.109603 -0.062542 8.210279 15.794911 12.551931 1.602913 8.380119 1.084204 -1.379862 -6.393618 -8.082472 0.177555 0.365128 0.018280
7.549012 89.712293 19.083979 -29.310857 -16.736588 -2.385927 -0.013402 9.190394 1.154826 -0.092019 4.057028 0.655675 -0.092019 4.057028 0.655675 -0.073344 3.042677 0.492162 -8.663500 22.523051 -0.611629 -15.466825 5.969772 1.227460 7.357527 3.026154 10.745360 15.161176 -16.919886 66.600674 36.939610 -33.772126 -31.750076 2.755729 -1.252501 -31.273280 -20.787671 7.327022 -12.985457 -26.724924 8.872055 -53.752599 -22.988312 -46.289891 3.644207 4.753730 8.522447 5.884801 1.120107 23.896508 -6.287259 -15.359213 -2.012906 3.052027 -0.181395 -2.978937 5.220481 -0.322024 -0.107993 -0.087980 7.499222 15.818348 12.688570 2.027039 8.516257 1.099572 -1.363193 -6.517472 -8.171407 0.180252 0.384239 0.022999
7.386942 89.707783 19.169574 -28.999809 -16.606347 -2.635844 -0.105079 9.147391 0.864016 -0.121919 4.031417 0.540256 -0.121919 4.031417 0.540256 -0.094971 3.023458 0.405830 -8.598281 22.513786 -0.555066 -15.364919 5.954046 1.313042 7.256879 2.879280 10.723952 12.876341 -17.404091 65.168954 37.918239 -32.866674 -31.492301 2.933374 -0.844292 -31.540055 -20.596447 7.076664 -12.993172 -25.806810 8.939170 -53.248903 -23.012663 -45.659332 3.448133 4.520366 8.399008 5.897755 0.019991 23.911264 -6.442047 -14.602405 -2.162547 3.172927 -0.163766 -3.046955 5.152402 -0.345340 -0.100885 -0.113984 6.829428 15.783570 12.802978 2.434104 8.642549 1.122296 -1.372543 -6.648669 -8.255529 0.182571 0.406885 0.027611
7.236950 89.699336 19.266715 -28.745241 -16.335663 -2.857410 -0.167710 9.094024 0.521991 -0.143917 4.003963 0.410753 -0.143917 4.003963 0.410753 -0.110589 3.002878 0.308884 -8.521564 22.466708 -0.458416 -15.254998 5.872247 1.471687 7.093886 2.648662 10.632525 10.851156 -17.791918 63.598567 38.703839 -31.924958 -30.968482 3.075876 -0.439233 -31.725141 -20.412155 6.738942 -12.939336 -25.129634 9.107125 -52.829578 -23.097391 -45.242697 3.490425 4.217984 8.266643 5.980290 -0.959289 23.788877 -6.616452 -13.875535 -2.293768 3.330463 -0.126533 -3.147686 5.095589 -0.406287 -0.075219 -0.152260 6.286059 15.598374 12.904462 2.773576 8.780789 1.143634 -1.372677 -6.835798 -8.336070 0.194903 0.471351 0.038536
7.103421 89.683630 19.366220 -28.530628 -15.953559 -3.083167 -0.218485 9.031208 0.146161 -0.159140 3.972303 0.263777 -0.159140 3.972303 0.263777 -0.121024 2.979160 0.198789 -8.430864 22.390882 -0.309588 -15.135563 5.742357 1.723484 6.878116 2.362063 10.480828 8.955352 -18.179243 62.017367 39.199746 -30.794560 -30.076858 3.180590 -0.069000 -31.670090 -20.240414 6.393800 -12.831488 -24.655729 9.402359 -52.402000 -23.261473 -45.097427 3.742541 3.898339 8.173431 6.185608 -1.677400 23.545037 -6.718345 -13.322240 -2.364884 3.516974 -0.079754 -3.288038 5.044314 -0.485066 -0.034902 -0.194619 5.875052 15.280284 13.042581 2.997455 8.919629 1.147716 -1.376724 -7.018682 -8.406783 0.210593 0.527693 0.053186
6.982871 89.666323 19.450492 -28.404992 -15.578015 -3.325954 -0.212972 8.955520 -0.251585 -0.167812 3.951095 0.104980 -0.167812 3.951095 0.104980 -0.126489 2.963293 0.079791 -8.329309 22.311555 -0.121341 -15.007676 5.609771 2.043643 6.692649 2.133882 10.293740 7.234335 -18.565275 60.390922 39.513583 -29.671451 -29.086323 3.397402 0.257946 -30.932098 -20.121241 6.181644 -12.719118 -24.307190 9.809074 -51.850927 -23.485045 -45.205909 4.142254 3.562183 7.984702 6.378743 -1.972927 23.265306 -6.661626 -13.010143 -2.330240 3.701355 -0.029090 -3.482359 4.998671 -0.590630 0.020981 -0.243676 5.625724 14.936376 13.258708 3.150381 9.079720 1.121398 -1.381857 -7.256884 -8.466831 0.240547 0.627125 0.073460
6.844377 89.662533 19.506284 -28.338551 -15.337640 -3.655490 -0.175916 8.934984 -0.621039 -0.162099 3.959559 -0.065861 -0.162099 3.959559 -0.065861 -0.121099 2.969687 -0.048324 -8.216342 22.241220 0.099364 -14.867824 5.496696 2.418192 6.533482 1.993459 10.098438 5.689391 -18.884728 58.680676 39.759190 -28.559187 -27.970786 3.603279 0.449396 -29.944774 -20.044670 6.093304 -12.592358 -24.013633 10.186409 -51.243597 -23.646488 -45.534287 4.603650 3.294982 7.792224 6.602916 -1.781229 23.083119 -6.250705 -13.001276 -2.221549 3.753858 -0.093523 -3.656145 4.927201 -0.598515 0.039191 -0.243225 5.528814 14.697387 13.633044 3.210756 9.231468 1.090205 -1.359730 -7.434169 -8.544710 0.257216 0.676351 0.088085
6.668712 89.679054 19.520124 -28.267862 -15.233837 -4.059865 -0.135328 8.981919 -0.956977 -0.155659 4.000671 -0.245659 -0.155659 4.000671 -0.245659 -0.115086 3.000567 -0.183149 -8.096929 22.175923 0.327907 -14.718438 5.393238 2.804619 6.378647 1.793745 9.880175 4.213798 -19.175731 57.000775 39.890645 -27.303969 -26.676533 3.715097 0.635767 -29.095415 -19.975175 6.035399 -12.452232 -23.758085 10.502442 -50.624068 -23.631331 -45.954642 5.158449 3.134578 7.576306 6.662329 -1.121228 23.009681 -5.467762 -13.356668 -2.054167 3.656333 -0.267377 -3.806379 4.817999 -0.494883 0.015285 -0.190339 5.573830 14.557964 14.159510 3.125669 9.353643 1.047556 -1.294263 -7.532612 -8.645255 0.257549 0.681030 0.094731
